<?xml version="1.0" standalone="no"?><!DOCTYPE svg PUBLIC "-//W3C//DTD SVG 1.1//EN" "http://www.w3.org/Graphics/SVG/1.1/DTD/svg11.dtd"><svg width="200" height="200" viewBox="0 0 200 200" version="1.1" xmlns="http://www.w3.org/2000/svg" xmlns:xlink="http://www.w3.org/1999/xlink"><defs><style type="text/css"><![CDATA[
@font-face { font-family: ifont; src: url("//at.alicdn.com/t/font_1442373896_4754455.eot?#iefix") format("embedded-opentype"), url("//at.alicdn.com/t/font_1442373896_4754455.woff") format("woff"), url("//at.alicdn.com/t/font_1442373896_4754455.ttf") format("truetype"), url("//at.alicdn.com/t/font_1442373896_4754455.svg#ifont") format("svg"); }

]]></style></defs><g class="transform-group"><g transform="scale(0.1953125, 0.1953125)"><path d="M512.000098 0c283.569176 0 511.999902 228.923033 511.999902 512.984517 0 283.076869-229.41534 511.26144-513.722978 511.015286C227.200153 1023.753649-0.245957 794.092155 0.000197 509.29221 0.246351 228.184572 229.907845 0 512.000098 0zM872.615414 811.076767c0.492308-0.492308 1.723077-1.723077 2.707692-2.953846 86.399983-108.307671 120.369208-231.138417 99.938442-367.753775-17.723074-118.892285-74.584601-216.615343-167.876891-292.184559-102.39998-82.95383-220.061496-116.430747-350.769163-101.661519C354.707821 58.092297 265.600146 99.199981 191.754006 169.846121c-112.73844 107.815364-161.723046 240.738415-145.476895 396.307616 9.353844 89.846137 44.307684 169.599967 100.43075 239.999954 4.430768 5.661537 7.876922 5.907691 14.27692 3.692307 68.923064-24.61538 137.846127-49.23076 206.769191-73.107678 9.599998-3.199999 13.292305-7.630768 13.538459-16.984612 0.246154-26.338456-1.96923-51.938452-12.30769-76.799985-7.630768-18.461535-11.569229-38.153839-17.47692-57.353835-2.461538-7.630768-5.661537-15.015382-9.107691-22.153842-23.138457-44.799991-39.630762-90.584598-24.861534-142.030742 1.230769-4.184615 1.96923-8.861537 1.723077-13.292305-1.96923-25.353841-3.446153-50.707683-7.13846-75.81537-8.861537-63.753834 12.061536-115.938439 58.584604-158.7692 63.753834-58.830758 198.646116-59.323066 264.861488-14.030767 59.076912 40.369223 85.907676 96.738443 78.276908 168.615352-2.707692 25.599995-6.399999 51.19999-6.892306 77.046139-0.492308 14.27692 6.646153 28.799994 6.646153 43.076915 0 42.830761-9.599998 83.446138-33.72307 119.8769-2.215384 3.199999-3.692307 7.384614-4.923076 11.076921-7.876922 25.353841-14.769228 50.953836-23.876918 75.81537-7.630768 20.430765-14.523074 40.615377-13.784613 63.015372 0.246154 10.33846 3.199999 15.507689 13.292305 18.215381 20.430765 5.661537 40.615377 12.30769 60.799988 19.199996C764.80005 773.415236 818.461578 792.369078 872.615414 811.076767z" fill="#272636"></path></g></g></svg>